<?xml version="1.0" encoding="iso-8859-1"?>
<!-- Generator: Adobe Illustrator 16.0.0, SVG Export Plug-In . SVG Version: 6.00 Build 0)  -->
<!DOCTYPE svg PUBLIC "-//W3C//DTD SVG 1.1//EN" "http://www.w3.org/Graphics/SVG/1.1/DTD/svg11.dtd">
<svg version="1.1" id="Capa_1" xmlns="http://www.w3.org/2000/svg" xmlns:xlink="http://www.w3.org/1999/xlink" x="0px" y="0px"
	 width="298.345px" height="298.345px" viewBox="0 0 298.345 298.345" style="enable-background:new 0 0 298.345 298.345;"
	 xml:space="preserve">
<g>
	<g>
		<path d="M186.693,90.274c-12.144,0-22.012,9.868-22.012,22.007c0,12.138,9.868,22.012,22.012,22.012
			c12.136,0,22.016-9.874,22.016-22.012C208.708,100.143,198.823,90.274,186.693,90.274z M186.693,123.537
			c-6.206,0-11.261-5.042-11.261-11.262c0-6.208,5.044-11.255,11.261-11.255c6.209,0,11.265,5.042,11.265,11.255
			C197.953,118.495,192.907,123.537,186.693,123.537z"/>
		<circle cx="105.234" cy="112.281" r="11.256"/>
		<path d="M292.405,21.224L268.887,5.166c-1.517-1.037-3.453-1.231-5.149-0.504L233.349,17.69C230.163,7.483,220.741,0,209.496,0
			c-11.979,0-22.006,8.457-24.473,19.717h-71.946C110.604,8.457,100.583,0,88.597,0c-11.208,0-20.609,7.434-23.82,17.588
			L34.612,4.662c-1.683-0.722-3.628-0.538-5.15,0.504L5.944,21.224c-2.181,1.488-2.955,4.351-1.827,6.74l14.911,31.541
			c0.892,1.887,2.784,3.081,4.858,3.081h22.711L60.14,70.03l-9.068,114.729c-0.764,5.303-1.118,9.795-1.118,14.143
			c0,54.834,44.609,99.444,99.444,99.444c54.838,0,99.458-44.61,99.458-99.444c0-4.348-0.355-8.84-1.08-13.795l-9.129-115.307
			l13.102-7.202h22.71c2.089,0,3.979-1.2,4.859-3.082l14.909-31.541C295.355,25.575,294.589,22.722,292.405,21.224z M209.496,10.751
			c6.005,0,11.139,3.713,13.276,8.966h-26.541C198.35,14.465,203.49,10.751,209.496,10.751z M127.245,112.282
			c0,12.138-9.875,22.012-22.011,22.012c-12.139,0-22.013-9.874-22.013-22.012c0-12.139,9.874-22.007,22.013-22.007
			C117.371,90.274,127.245,100.143,127.245,112.282z M88.602,10.751c6.005,0,11.14,3.713,13.273,8.966H75.326
			C77.46,14.465,82.591,10.751,88.602,10.751z M271.05,51.841h-20.694c-0.906,0-1.8,0.226-2.581,0.667l-17.36,9.541
			c-1.849,1.01-2.935,3.026-2.767,5.139l9.443,119.092c0.683,4.799,1.013,8.809,1.013,12.621c0,48.924-39.79,88.703-88.707,88.703
			c-48.916,0-88.694-39.779-88.694-88.703c0-3.812,0.323-7.822,1.042-12.956l1.942-24.51l6.777,5.066
			c0.173,0.12,0.344,0.241,0.527,0.341c0.897,0.514,17.835,10.141,36.542,10.141c5.005,0,10.139-0.681,15.121-2.418
			c11.796-4.111,20.546-13.208,26.006-27.047c15.805-40.011,14.683-98.554,13.862-117.051h67.172c0.73,0,1.46-0.144,2.122-0.435
			l33.428-14.326l17.297,11.811L271.05,51.841z"/>
		<path d="M130.476,238.849c5.819,0,10.536,4.713,10.536,10.53c0,5.82-4.716,10.541-10.536,10.541
			c-5.819,0-10.536-4.721-10.536-10.541C119.94,243.562,124.657,238.849,130.476,238.849z"/>
		<path d="M179.237,238.849c5.817,0,10.536,4.713,10.536,10.53c0,5.82-4.719,10.541-10.536,10.541
			c-5.814,0-10.535-4.721-10.535-10.541C168.702,243.562,173.422,238.849,179.237,238.849z"/>
	</g>
</g>
<g>
</g>
<g>
</g>
<g>
</g>
<g>
</g>
<g>
</g>
<g>
</g>
<g>
</g>
<g>
</g>
<g>
</g>
<g>
</g>
<g>
</g>
<g>
</g>
<g>
</g>
<g>
</g>
<g>
</g>
</svg>
